<svg width="250" height="94" viewBox="0 0 250 94" fill="none" xmlns="http://www.w3.org/2000/svg">
<path d="M230.05 20.2959L186.83 15.2189C182.479 14.7167 178.074 15.4769 174.784 16.7936L155.41 27.599L158.687 29.1873C159.163 29.3366 161.066 30.4361 161.256 30.5855C162.888 31.7393 163.037 31.6443 164.574 33.2733C166.654 36.0561 166.708 36.0968 169.604 44.4724C171.616 50.2959 170.542 59.1873 169.087 65.7032C167.932 67.7937 168.149 67.3728 167.198 69.7077C166.885 70.0335 166.463 70.7801 166.123 71.1059L191.928 77.9068C198.631 81.0968 206.503 80.7846 212.933 77.0787L238.724 62.1873C245.549 58.2507 249.832 51.0425 249.995 43.1692C250.24 31.5493 241.607 21.6533 230.064 20.2959H230.05Z" fill="#EDECE3" fill-opacity="0.4"/>
<path d="M0.0543942 53.3367C0.0543942 59.4588 2.52879 65.3503 6.90659 69.6534L13.1198 75.7484C20.1488 82.9023 31.0661 84.5584 39.9168 79.8073L42.3776 78.4905C46.3884 76.3457 50.9429 75.4498 55.4703 75.9385L74.7625 78.0018C78.9636 78.4634 82.9471 80.0652 86.278 82.6851L93.9596 88.7123C100.2 93.5991 108.548 94.8616 115.957 92.0245L149.661 79.1557C158.172 75.9113 163.909 67.8616 164.154 58.753L164.371 51.1104C164.698 39.8027 161.312 34.9158 151.741 30.2326L94.517 2.2959C86.2508 -1.74935 76.326 -0.364738 69.4738 5.78459L66.0069 8.90676C61.7379 12.7484 56.1772 14.8253 50.4399 14.6896L33.5677 14.3502C28.0206 14.2416 22.6096 16.1692 18.3949 19.7801L7.85829 28.8208C2.88228 33.0968 0 39.3412 0 45.9113V53.3367H0.0543942Z" fill="#EDECE3" fill-opacity="0.4"/>
</svg>
