<svg width="20" height="20" viewBox="0 0 20 20" fill="none" xmlns="http://www.w3.org/2000/svg">
<path d="M5.75424 9.3359C5.81833 9.26227 5.8952 9.20303 5.98046 9.16154C6.06572 9.12005 6.1577 9.09713 6.25116 9.09409C6.34461 9.09105 6.4377 9.10795 6.52511 9.14383C6.61252 9.1797 6.69254 9.23385 6.7606 9.30318C10.0364 12.6405 13.3233 14.6709 17.1912 15.7059C17.7131 14.1662 17.7593 12.4716 17.3087 10.8183C16.7107 8.62475 15.3182 6.71361 13.2828 5.29181C11.4658 4.02253 9.64976 3.69197 7.89286 3.37249C5.67639 2.96928 3.5827 2.58821 1.58467 0.300328C1.36222 0.0472418 1.05925 -0.0542814 0.769623 0.0279957C0.43862 0.124226 0.216616 0.407144 0.110286 0.874825C-0.138856 1.96945 0.0213066 5.03728 0.722019 8.27592C1.84716 13.4791 3.64277 16.112 4.95121 17.4048C6.64181 19.0739 8.84939 19.9982 11.0432 19.9982C11.4567 19.999 11.8697 19.9661 12.2787 19.9001C14.1343 19.596 15.679 18.588 16.5497 17.1214C12.5683 16.0013 9.16705 13.8712 5.78316 10.4257C5.71498 10.3563 5.66014 10.273 5.62177 10.1806C5.58341 10.0882 5.56227 9.98853 5.55959 9.88729C5.5569 9.78605 5.57271 9.68524 5.60611 9.59062C5.63952 9.496 5.68986 9.40944 5.75424 9.3359Z" fill="#E7DECE"/>
<path d="M19.3801 16.1778C18.6314 16.0532 17.9062 15.8968 17.2001 15.7077C17.055 16.1363 16.8744 16.5498 16.6605 16.9433C16.628 17.0034 16.5937 17.0631 16.5586 17.1218C17.4174 17.3622 18.2869 17.5549 19.1639 17.6992C19.2572 17.7169 19.3529 17.7143 19.4453 17.6916C19.5376 17.6688 19.6249 17.6263 19.7019 17.5666C19.7789 17.5069 19.8441 17.4312 19.8937 17.3439C19.9433 17.2566 19.9762 17.1594 19.9907 17.0582C20.0051 16.9569 20.0007 16.8535 19.9777 16.7541C19.9547 16.6547 19.9136 16.5613 19.8567 16.4793C19.7999 16.3973 19.7285 16.3284 19.6468 16.2766C19.565 16.2248 19.4745 16.1912 19.3806 16.1778H19.3801Z" fill="#E7DECE"/>
</svg>
