<svg width="100" height="90" viewBox="0 0 100 90" fill="none" xmlns="http://www.w3.org/2000/svg">
<g clip-path="url(#clip0_4001_760)">
<path d="M11.75 64.5425H16.9158V65.9952H13.409V71.3219H11.75V64.5425Z" fill="#EDECE3"/>
<path d="M18.4336 64.5425H23.9271V65.9952H20.0926V67.2737H23.7284V68.5907H20.0926V69.8692H23.9271V71.3219H18.4336V64.5425Z" fill="#EDECE3"/>
<mask id="mask0_4001_760" style="mask-type:luminance" maskUnits="userSpaceOnUse" x="0" y="0" width="100" height="90">
<path d="M0 0H100V89.4737H0V0Z" fill="white"/>
</mask>
<g mask="url(#mask0_4001_760)">
<path d="M29.242 69.9563C30.4043 69.9563 31.2686 69.0653 31.2686 67.9321C31.2686 66.799 30.4043 65.9081 29.242 65.9081C28.0797 65.9081 27.2254 66.799 27.2254 67.9321C27.2254 69.0653 28.0797 69.9563 29.242 69.9563ZM25.5664 67.9321C25.5664 65.9566 27.2155 64.3488 29.242 64.3488C31.2686 64.3488 32.9175 65.9566 32.9175 67.9321C32.9175 69.9079 31.2686 71.5156 29.242 71.5156C27.2155 71.5156 25.5664 69.9079 25.5664 67.9321Z" fill="#EDECE3"/>
</g>
<mask id="mask1_4001_760" style="mask-type:luminance" maskUnits="userSpaceOnUse" x="0" y="0" width="100" height="90">
<path d="M0 0H100V89.4737H0V0Z" fill="white"/>
</mask>
<g mask="url(#mask1_4001_760)">
<path d="M39.0128 69.8691V65.9953H37.3736L36.4497 69.6755C36.4299 69.7432 36.41 69.811 36.3801 69.8691H39.0128ZM33.8867 69.995H34.155C34.6517 69.995 34.8305 69.6174 34.9597 69.1235L36.1218 64.5424H40.6717V69.8691H41.2678V72.3872H39.6088V71.3218H35.5359V72.3872H33.8867V69.995Z" fill="#EDECE3"/>
</g>
<mask id="mask2_4001_760" style="mask-type:luminance" maskUnits="userSpaceOnUse" x="0" y="0" width="100" height="90">
<path d="M0 0H100V89.4737H0V0Z" fill="white"/>
</mask>
<g mask="url(#mask2_4001_760)">
<path d="M53.9844 64.5425H55.6434L58.0872 68.6005L60.531 64.5425H62.19V71.3219H60.531V67.3898L58.7428 70.3535H57.4215L55.6434 67.3898V71.3219H53.9844V64.5425Z" fill="#EDECE3"/>
</g>
<mask id="mask3_4001_760" style="mask-type:luminance" maskUnits="userSpaceOnUse" x="0" y="0" width="100" height="90">
<path d="M0 0H100V89.4737H0V0Z" fill="white"/>
</mask>
<g mask="url(#mask3_4001_760)">
<path d="M64.8203 64.5425H66.4793V68.8135L69.6582 64.5425H71.3073V71.3219H69.6582V67.0509L66.4793 71.3219H64.8203V64.5425Z" fill="#EDECE3"/>
</g>
<mask id="mask4_4001_760" style="mask-type:luminance" maskUnits="userSpaceOnUse" x="0" y="0" width="100" height="90">
<path d="M0 0H100V89.4737H0V0Z" fill="white"/>
</mask>
<g mask="url(#mask4_4001_760)">
<path d="M73.4453 64.5425H75.1043V67.1961L77.7071 64.5425H79.7236L76.4255 67.9321L79.7236 71.3219H77.7071L75.1043 68.6683V71.3219H73.4453V64.5425Z" fill="#EDECE3"/>
</g>
<mask id="mask5_4001_760" style="mask-type:luminance" maskUnits="userSpaceOnUse" x="0" y="0" width="100" height="90">
<path d="M0 0H100V89.4737H0V0Z" fill="white"/>
</mask>
<g mask="url(#mask5_4001_760)">
<path d="M85.1827 68.9007L84.2588 66.6828L83.3251 68.9007H85.1827ZM85.7093 70.2275H82.7985L82.3416 71.3219H80.6328L83.4045 64.5424H85.1032L87.875 71.3219H86.1662L85.7093 70.2275Z" fill="#EDECE3"/>
</g>
<mask id="mask6_4001_760" style="mask-type:luminance" maskUnits="userSpaceOnUse" x="0" y="0" width="100" height="90">
<path d="M0 0H100V89.4737H0V0Z" fill="white"/>
</mask>
<g mask="url(#mask6_4001_760)">
<path d="M54.7575 27.7828L51.6484 38.4489C51.4811 38.9785 51.936 39.4976 52.4986 39.4194L67.0403 37.3975C67.7261 37.3022 67.9489 36.4444 67.3925 36.0422L55.9601 27.3979C55.5304 27.0874 54.9147 27.2844 54.7575 27.7828Z" fill="#EDECE3"/>
</g>
<mask id="mask7_4001_760" style="mask-type:luminance" maskUnits="userSpaceOnUse" x="0" y="0" width="100" height="90">
<path d="M0 0H100V89.4737H0V0Z" fill="white"/>
</mask>
<g mask="url(#mask7_4001_760)">
<path d="M71.6573 24.4552L68.9376 30.4307C68.743 30.8583 68.1413 31.0345 67.6899 30.7958L59.3545 26.3892C58.692 26.039 58.9085 25.1686 59.6854 25.0583L70.7405 23.4896C71.3861 23.398 71.8946 23.9337 71.6573 24.4552Z" fill="#EDECE3"/>
</g>
<mask id="mask8_4001_760" style="mask-type:luminance" maskUnits="userSpaceOnUse" x="0" y="0" width="100" height="90">
<path d="M0 0H100V89.4737H0V0Z" fill="white"/>
</mask>
<g mask="url(#mask8_4001_760)">
<path d="M58.3496 18.1504L55.0611 21.8434C54.7137 22.2335 55.0435 22.8355 55.5691 22.7712L67.4938 21.3115C68.0459 21.2439 68.115 20.4908 67.584 20.3287L59.4504 17.8461C59.054 17.7252 58.6218 17.8446 58.3496 18.1504Z" fill="#EDECE3"/>
</g>
<mask id="mask9_4001_760" style="mask-type:luminance" maskUnits="userSpaceOnUse" x="0" y="0" width="100" height="90">
<path d="M0 0H100V89.4737H0V0Z" fill="white"/>
</mask>
<g mask="url(#mask9_4001_760)">
<path d="M54.2952 16.8852L44.0145 19.4341C43.4647 19.5704 43.5091 20.3456 44.0709 20.4213L50.7548 21.323C51.151 21.3764 51.5485 21.2349 51.8163 20.9453L54.8063 17.7107C55.1487 17.3405 54.7905 16.7623 54.2952 16.8852Z" fill="#EDECE3"/>
</g>
<mask id="mask10_4001_760" style="mask-type:luminance" maskUnits="userSpaceOnUse" x="0" y="0" width="100" height="90">
<path d="M0 0H100V89.4737H0V0Z" fill="white"/>
</mask>
<g mask="url(#mask10_4001_760)">
<path d="M37.8143 22.9468L31.7982 32.4959C31.4909 32.9839 32.055 33.549 32.5637 33.2627L47.7668 24.7058C48.2257 24.4474 48.1015 23.7708 47.5788 23.6839L39.2728 22.3025C38.6972 22.2067 38.12 22.4618 37.8143 22.9468Z" fill="#EDECE3"/>
</g>
<mask id="mask11_4001_760" style="mask-type:luminance" maskUnits="userSpaceOnUse" x="0" y="0" width="100" height="90">
<path d="M0 0H100V89.4737H0V0Z" fill="white"/>
</mask>
<g mask="url(#mask11_4001_760)">
<path d="M46.1784 39.7121L33.3735 37.6959C32.7179 37.5926 32.5599 36.743 33.137 36.422L50.2043 26.9302C50.727 26.6396 51.3434 27.127 51.1594 27.6857L47.4501 38.952C47.2772 39.4768 46.7367 39.8001 46.1784 39.7121Z" fill="#EDECE3"/>
</g>
<mask id="mask12_4001_760" style="mask-type:luminance" maskUnits="userSpaceOnUse" x="0" y="0" width="100" height="90">
<path d="M0 0H100V89.4737H0V0Z" fill="white"/>
</mask>
<g mask="url(#mask12_4001_760)">
<path d="M50.6212 45.1073L59.7448 58.5578C60.1096 59.0955 60.9385 59.0333 61.2146 58.4473L68.7907 42.3672C69.0724 41.7695 68.5559 41.1074 67.8899 41.2123L51.1901 43.8422C50.5856 43.9374 50.2833 44.6094 50.6212 45.1073Z" fill="#EDECE3"/>
</g>
<mask id="mask13_4001_760" style="mask-type:luminance" maskUnits="userSpaceOnUse" x="0" y="0" width="100" height="90">
<path d="M0 0H100V89.4737H0V0Z" fill="white"/>
</mask>
<g mask="url(#mask13_4001_760)">
<path d="M54.6832 59.1796L47.2166 48.1189C46.8287 47.5443 45.9687 47.532 45.5637 48.0954L37.6123 59.1561C37.1483 59.8016 37.622 60.6893 38.4306 60.6893H53.8486C54.6439 60.6893 55.1205 59.8274 54.6832 59.1796Z" fill="#EDECE3"/>
</g>
<mask id="mask14_4001_760" style="mask-type:luminance" maskUnits="userSpaceOnUse" x="0" y="0" width="100" height="90">
<path d="M0 0H100V89.4737H0V0Z" fill="white"/>
</mask>
<g mask="url(#mask14_4001_760)">
<path d="M29.6527 42.8184L32.8359 57.3181C32.9971 58.0515 33.9798 58.2413 34.4154 57.623L43.187 45.1751C43.5481 44.6625 43.2447 43.9575 42.6166 43.8498L30.6617 41.7981C30.0493 41.693 29.5226 42.2257 29.6527 42.8184Z" fill="#EDECE3"/>
</g>
<mask id="mask15_4001_760" style="mask-type:luminance" maskUnits="userSpaceOnUse" x="0" y="0" width="100" height="90">
<path d="M0 0H100V89.4737H0V0Z" fill="white"/>
</mask>
<g mask="url(#mask15_4001_760)">
<path d="M28.4339 60.6978H16.0605C15.3498 60.6978 14.9107 59.9419 15.2761 59.3476L24.5207 44.3083C24.7962 43.8603 25.4923 43.973 25.6045 44.4838L29.0112 60.0017C29.0899 60.3601 28.8097 60.6978 28.4339 60.6978Z" fill="#EDECE3"/>
</g>
<mask id="mask16_4001_760" style="mask-type:luminance" maskUnits="userSpaceOnUse" x="0" y="0" width="100" height="90">
<path d="M0 0H100V89.4737H0V0Z" fill="white"/>
</mask>
<g mask="url(#mask16_4001_760)">
<path d="M15.3979 44.3653L12.2008 57.4052C12.0546 58.0012 12.88 58.3349 13.2092 57.8126L23.6736 41.215C23.8883 40.8746 23.5338 40.4641 23.1532 40.6121L16.3981 43.2377C15.8964 43.4326 15.5234 43.8532 15.3979 44.3653Z" fill="#EDECE3"/>
</g>
<mask id="mask17_4001_760" style="mask-type:luminance" maskUnits="userSpaceOnUse" x="0" y="0" width="100" height="90">
<path d="M0 0H100V89.4737H0V0Z" fill="white"/>
</mask>
<g mask="url(#mask17_4001_760)">
<path d="M31.3474 27.3657L19.2731 38.2357C18.894 38.577 19.2288 39.2077 19.7111 39.0605L25.6434 37.2502C26.0792 37.1172 26.4568 36.8317 26.711 36.443L32.1649 28.1069C32.5259 27.5553 31.8339 26.9277 31.3474 27.3657Z" fill="#EDECE3"/>
</g>
<mask id="mask18_4001_760" style="mask-type:luminance" maskUnits="userSpaceOnUse" x="0" y="0" width="100" height="90">
<path d="M0 0H100V89.4737H0V0Z" fill="white"/>
</mask>
<g mask="url(#mask18_4001_760)">
<path d="M77.6598 39.2108L67.8864 60.1582C67.7581 60.433 67.9642 60.7451 68.2739 60.7451H87.8209C88.1306 60.7451 88.3367 60.433 88.2084 60.1582L78.435 39.2108C78.2837 38.8865 77.8111 38.8865 77.6598 39.2108Z" fill="#EDECE3"/>
</g>
<mask id="mask19_4001_760" style="mask-type:luminance" maskUnits="userSpaceOnUse" x="0" y="0" width="100" height="90">
<path d="M0 0H100V89.4737H0V0Z" fill="white"/>
</mask>
<g mask="url(#mask19_4001_760)">
<path d="M77.578 22.1553L73.007 33.396C72.8961 33.6684 73.1022 33.964 73.4028 33.964H82.5448C82.8455 33.964 83.0515 33.6684 82.9406 33.396L78.3695 22.1553C78.2275 21.8058 77.7201 21.8058 77.578 22.1553Z" fill="#EDECE3"/>
</g>
<mask id="mask20_4001_760" style="mask-type:luminance" maskUnits="userSpaceOnUse" x="0" y="0" width="100" height="90">
<path d="M0 -7.62939e-06H100V89.4737H0V-7.62939e-06Z" fill="white"/>
</mask>
<g mask="url(#mask20_4001_760)">
<path d="M77.6438 11.1684L75.3937 16.3343C75.2745 16.608 75.4806 16.9116 75.7856 16.9116H80.2858C80.5908 16.9116 80.7969 16.608 80.6777 16.3343L78.4276 11.1684C78.2807 10.8312 77.7907 10.8312 77.6438 11.1684Z" fill="#EDECE3"/>
</g>
<mask id="mask21_4001_760" style="mask-type:luminance" maskUnits="userSpaceOnUse" x="0" y="0" width="100" height="90">
<path d="M0 0H100V89.4737H0V0Z" fill="white"/>
</mask>
<g mask="url(#mask21_4001_760)">
<path d="M49.7518 68.8181L48.8975 69.8624C48.7536 70.0384 48.5354 70.1409 48.3044 70.1409H46.9344C46.7036 70.1409 46.4852 70.0384 46.3413 69.8624L45.4872 68.8181C45.3433 68.6421 45.2893 68.4119 45.3407 68.1926L45.6456 66.8903C45.6969 66.6708 45.848 66.4863 46.0559 66.3886L47.2903 65.8091C47.4983 65.7115 47.7406 65.7115 47.9485 65.8091L49.1829 66.3886C49.391 66.4863 49.5419 66.6708 49.5934 66.8903L49.8983 68.1926C49.9495 68.4119 49.8957 68.6421 49.7518 68.8181ZM51.7223 68.3887L51.1818 66.08C51.0875 65.6775 50.8105 65.3386 50.4287 65.1595L48.1097 64.0707C47.8106 63.9303 47.4622 63.9303 47.1633 64.0707L44.8441 65.1595C44.4625 65.3386 44.1853 65.6775 44.091 66.08L43.5505 68.3887C43.4564 68.7912 43.5551 69.2138 43.8193 69.5367L45.3337 71.388C45.5979 71.7109 45.9984 71.899 46.4219 71.899H48.8509C49.2746 71.899 49.6751 71.7109 49.9391 71.388L51.4536 69.5367C51.7177 69.2138 51.8166 68.7912 51.7223 68.3887Z" fill="#EDECE3"/>
</g>
</g>
<defs>
<clipPath id="clip0_4001_760">
<rect width="100" height="89.4737" fill="white"/>
</clipPath>
</defs>
</svg>
