<svg width="18" height="18" viewBox="10 10 20 20" fill="none" xmlns="http://www.w3.org/2000/svg">
<path fill-rule="evenodd" clip-rule="evenodd" d="M19.017 11.0413C19.4882 10.9864 20.7512 10.9862 21.1925 11.041C24.2074 11.4157 26.7585 13.2492 28.0883 15.9973C29.4428 18.7959 29.2784 22.1504 27.6592 24.7564C26.7186 26.2703 25.3094 27.4953 23.6822 28.2135C22.5176 28.7276 21.4915 28.9335 20.0887 28.9346C18.5553 28.9357 17.7685 28.7224 16.6941 28.0141C16.4623 27.8613 16.2416 27.7364 16.2036 27.7364C16.1657 27.7364 16.006 27.8454 15.8489 27.9787C15.4643 28.3049 15.1559 28.4971 14.727 28.6786C13.7901 29.0748 12.9208 29.1075 12.539 28.7609C12.357 28.5956 12.2918 28.3751 12.2616 27.8221C12.2196 27.0532 12.0923 26.3732 11.7059 24.8534C11.1484 22.6606 11.0432 21.9948 11.0066 20.4254C10.9783 19.2164 11.0369 18.6009 11.2644 17.7148C11.7996 15.6312 13.1072 13.7905 14.931 12.5536C16.074 11.7784 17.6274 11.2035 19.017 11.0413ZM21.1914 15.5583C20.7951 15.4439 19.6939 15.3936 19.2638 15.4702C18.5159 15.6036 17.7367 16.0009 17.1698 16.538C16.4182 17.2502 15.9692 18.0942 15.7154 19.2722C15.5845 19.8798 15.5515 21.249 15.6487 22.0436C15.793 23.2236 16.1343 24.2418 16.4189 24.341C16.5833 24.3981 16.8637 24.2576 17.2727 23.9129C17.4479 23.7652 17.6207 23.6344 17.6569 23.6223C17.6929 23.6102 17.9086 23.6962 18.136 23.8133C18.7832 24.1467 19.4384 24.323 20.0308 24.323C21.3366 24.323 22.6921 23.6777 23.502 22.6701C24.1933 21.8102 24.4992 20.9584 24.4983 19.8949C24.4975 18.9194 24.2991 18.2548 23.762 17.4272C23.1943 16.5525 22.246 15.863 21.1914 15.5583Z" fill="#EDECE3"/>
</svg>
