<svg width="16" height="16" viewBox="0 0 16 16" fill="none" xmlns="http://www.w3.org/2000/svg">
<path d="M15.0609 11.8892C15.025 11.667 14.8857 11.4772 14.6771 11.3644L11.5911 9.5461L11.5657 9.5319C11.4363 9.4672 11.2934 9.434 11.1487 9.435C10.8901 9.435 10.6432 9.533 10.4718 9.7048L9.561 10.6161C9.522 10.6531 9.395 10.7067 9.3565 10.7086C9.3459 10.7078 8.2966 10.6322 6.3649 8.7003C4.4367 6.7725 4.3542 5.72 4.3542 5.72C4.3553 5.6661 4.4083 5.5396 4.4459 5.5004L5.2227 4.7239C5.4963 4.4496 5.5783 3.9949 5.416 3.6427L3.7007 0.415C3.576 0.1584 3.3338 0 3.0651 0C2.8751 0 2.6916 0.0788 2.5483 0.2219L0.431003 2.3345C0.228003 2.5364 0.0532024 2.8895 0.0151024 3.1736C-0.00339762 3.3095 -0.379098 6.552 4.0664 10.9982C7.8405 14.7718 10.7833 15.065 11.596 15.065C11.695 15.0661 11.7939 15.061 11.8922 15.0497C12.1756 15.0118 12.5282 14.8375 12.7299 14.6353L14.8454 12.52C15.0181 12.3465 15.0969 12.1172 15.0609 11.8892Z" fill="#EDECE3"/>
</svg>
