<svg width="18" height="16" viewBox="0 0 18 16" fill="none" xmlns="http://www.w3.org/2000/svg">
<path fill-rule="evenodd" clip-rule="evenodd" d="M16.1356 0.10524C16.3569 0.0120684 16.5991 -0.0200798 16.837 0.0121611C17.075 0.0444019 17.2999 0.139816 17.4885 0.288498C17.6771 0.43718 17.8223 0.633709 17.9091 0.857619C17.9959 1.08144 18.0212 1.3245 17.9822 1.5614L15.951 13.8819C15.754 15.0703 14.4501 15.7519 13.3602 15.1599C12.4484 14.6646 11.0943 13.9016 9.87637 13.1055C9.26735 12.7069 7.40186 11.4307 7.6311 10.5226C7.82819 9.74609 10.9627 6.82834 12.7538 5.0936C13.4569 4.41206 13.1362 4.0189 12.306 4.64578C10.2444 6.20231 6.93432 8.56935 5.84 9.23566C4.87455 9.82319 4.37122 9.92346 3.76939 9.82319C2.67143 9.64049 1.65309 9.35743 0.822019 9.01268C-0.30099 8.54692 -0.246413 7.003 0.821179 6.55341L16.1356 0.10524Z" fill="#EDECE3"/>
</svg>
