<svg width="18" height="18" viewBox="0 0 18 18" fill="none" xmlns="http://www.w3.org/2000/svg">
<path d="M7.11673 0.00227316L7.66355 0H10.3365L10.884 0.00227316L11.5695 0.00975759L11.8942 0.014968L12.2078 0.0232104L12.51 0.033726L12.801 0.0457577L13.0815 0.0614837L13.3515 0.0802418L13.6103 0.102694L13.86 0.127515C15.165 0.274452 16.0598 0.589452 16.7348 1.26445C17.4098 1.93945 17.7248 2.83348 17.8717 4.13924L17.8972 4.38897L17.919 4.64845L17.9378 4.91845L17.9527 5.19821L17.9715 5.63921L17.9805 5.94672L17.9902 6.4297L17.997 7.11597L18 7.85094L17.9992 10.3357L17.997 10.8833L17.9895 11.5687L17.9843 11.8935L17.976 12.2069L17.9655 12.5092L17.9535 12.8003L17.9378 13.0807L17.919 13.3507L17.8965 13.6095L17.8717 13.8592C17.7248 15.1642 17.4098 16.0589 16.7348 16.7339C16.0598 17.4089 15.1658 17.7239 13.86 17.871L13.6103 17.8965L13.3508 17.9182L13.0808 17.937L12.801 17.952L12.36 17.9707L12.0525 17.9797L11.5695 17.9895L10.8833 17.9962L10.1482 17.9992L7.66355 17.9985L7.11597 17.9962L6.43055 17.9887L6.10579 17.9835L5.79221 17.9753L5.49 17.9648L5.19897 17.9527L4.91855 17.937L4.64855 17.9182L4.38973 17.8957L4.14 17.871C2.835 17.7239 1.94021 17.4089 1.26521 16.7339C0.59021 16.0589 0.27521 15.165 0.128274 13.8592L0.102789 13.6095L0.0809998 13.3499L0.0622417 13.0799L0.0472737 12.8003L0.0285157 12.3593L0.0195161 12.0518L0.00975759 11.5687L0.00303118 10.8825L0 10.1475L0.00075802 7.66269L0.00303118 7.11521L0.0105156 6.4297L0.015726 6.10494L0.0239684 5.79145L0.0344841 5.48924L0.0465157 5.19821L0.0622417 4.91769L0.0809998 4.64769L0.103547 4.38897L0.128274 4.13924C0.27521 2.83424 0.59021 1.93945 1.26521 1.26445C1.94021 0.589452 2.83424 0.274452 4.14 0.127515L4.38973 0.101936L4.64921 0.0802418L4.91921 0.0614837L5.19897 0.0465157L5.63997 0.0277576L5.94748 0.0187572L6.43055 0.00899957L7.11673 0.00227316ZM5.09248 5.47427H3.03755C3.13503 10.1543 5.47503 12.9667 9.57752 12.9667H9.81V10.2893C11.3175 10.4392 12.4575 11.5417 12.915 12.9667H15.045C14.46 10.8368 12.9225 9.65927 11.9625 9.20927C12.9225 8.65421 14.2725 7.30421 14.595 5.47427H12.66C12.24 6.95927 10.995 8.30927 9.81 8.4367V5.47427H7.875V10.6642C6.67497 10.3642 5.16003 8.90924 5.09248 5.47427Z" fill="#EDECE3"/>
</svg>
