<svg width="45" height="45" viewBox="0 0 45 45" fill="none" xmlns="http://www.w3.org/2000/svg">
<rect x="0.5" y="0.5" width="44" height="44" rx="4.5" stroke="#92765B" stroke-opacity="0.2"/>
<path d="M22.975 12.2262C22.9163 12.1552 22.8435 12.0983 22.7616 12.0593C22.6796 12.0202 22.5905 12 22.5003 12C22.41 12 22.3209 12.0202 22.239 12.0593C22.157 12.0983 22.0842 12.1552 22.0255 12.2262C20.3766 14.2225 15 21.1243 15 26.2367C15 31.0009 17.8979 34 22.5 34C27.1021 34 30 31.0009 30 26.2367C30 21.1243 24.6234 14.2225 22.975 12.2262ZM23.3333 31.1966C23.2332 31.1968 23.1345 31.1722 23.0456 31.1247C22.9566 31.0772 22.8799 31.0083 22.822 30.9237C22.7642 30.8392 22.7267 30.7415 22.7129 30.6389C22.6991 30.5363 22.7093 30.4317 22.7427 30.334C22.7853 30.2065 22.8657 30.0962 22.9724 30.0188C23.0791 29.9414 23.2067 29.9007 23.337 29.9027C24.1643 29.9009 24.9572 29.5599 25.5421 28.9544C26.1271 28.3488 26.4565 27.5281 26.4583 26.6718C26.4564 26.5369 26.4957 26.4049 26.5705 26.2944C26.6453 26.184 26.7519 26.1008 26.875 26.0567C26.9694 26.0221 27.0704 26.0115 27.1695 26.0258C27.2687 26.0401 27.3631 26.0789 27.4447 26.1388C27.5264 26.1987 27.593 26.278 27.6389 26.3701C27.6847 26.4622 27.7086 26.5644 27.7083 26.668C27.7071 27.8687 27.2458 29.0198 26.4256 29.8688C25.6054 30.7178 24.4933 31.1953 23.3333 31.1966Z" fill="#202129"/>
</svg>
