<svg width="23" height="23" viewBox="0 0 23 23" fill="none" xmlns="http://www.w3.org/2000/svg">
<path d="M11.2053 4.48782L7.45637 0.739258C5.30968 1.55614 3.45406 2.99229 2.125 4.86545H11.0493C11.093 4.86537 11.1358 4.85234 11.1721 4.828C11.2084 4.80366 11.2367 4.7691 11.2534 4.72869C11.2701 4.68828 11.2744 4.64383 11.2658 4.60096C11.2573 4.55809 11.2362 4.51872 11.2053 4.48782Z" fill="#202129"/>
<path d="M6.61979 6.63477H1.08549C0.0673967 8.80464 -0.244904 11.239 0.192505 13.5956L6.77571 7.01239C6.80665 6.98149 6.82773 6.94212 6.8363 6.89925C6.84486 6.85638 6.84053 6.81193 6.82384 6.77152C6.80716 6.73111 6.77887 6.69655 6.74255 6.67221C6.70623 6.64787 6.66351 6.63484 6.61979 6.63477Z" fill="#202129"/>
<path d="M16.371 6.61915V1.08144C14.2002 0.0665928 11.7664 -0.244253 9.41016 0.192404L15.9934 6.77506C16.0243 6.80599 16.0636 6.82707 16.1065 6.83564C16.1494 6.8442 16.1938 6.83987 16.2343 6.82319C16.2747 6.8065 16.3092 6.77822 16.3336 6.7419C16.3579 6.70558 16.3709 6.66287 16.371 6.61915Z" fill="#202129"/>
<path d="M22.8082 9.40479L16.225 15.988C16.1941 16.0189 16.173 16.0583 16.1644 16.1011C16.1559 16.144 16.1602 16.1885 16.1769 16.2289C16.1936 16.2693 16.2219 16.3038 16.2582 16.3282C16.2945 16.3525 16.3372 16.3655 16.3809 16.3656H21.9152C22.9333 14.1957 23.2456 11.7614 22.8082 9.40479Z" fill="#202129"/>
<path d="M18.5144 11.1979L22.2649 7.44827C21.4501 5.29857 20.0128 3.44061 18.1367 2.11182V11.042C18.1368 11.0857 18.1498 11.1285 18.1742 11.1648C18.1985 11.2011 18.2331 11.2294 18.2735 11.2461C18.3139 11.2628 18.3583 11.2671 18.4012 11.2585C18.4441 11.25 18.4835 11.2289 18.5144 11.1979Z" fill="#202129"/>
<path d="M9.60593 16.2417C9.68829 16.3208 9.79806 16.3649 9.91225 16.365H13.211C13.2697 16.3649 13.3278 16.3532 13.3819 16.3306C13.436 16.3079 13.4851 16.2747 13.5262 16.2328L16.2455 13.4684C16.3271 13.3856 16.3728 13.2739 16.3727 13.1577L16.3694 9.79558C16.3694 9.73704 16.3577 9.67909 16.3351 9.62509C16.3125 9.57109 16.2795 9.52211 16.2378 9.48099L13.4731 6.75802C13.3902 6.67631 13.2783 6.63062 13.1618 6.63086L9.7978 6.63418C9.73926 6.6342 9.6813 6.64585 9.6273 6.66844C9.57329 6.69102 9.5243 6.72411 9.48318 6.76576L6.75999 9.53019C6.67827 9.61317 6.63257 9.72502 6.63281 9.84147L6.63613 13.2019C6.63614 13.2614 6.64815 13.3202 6.67142 13.3749C6.6947 13.4297 6.72877 13.4791 6.7716 13.5204L9.60593 16.2417Z" fill="#202129"/>
<path d="M11.8071 18.5124L15.5559 22.261C17.7026 21.4441 19.5582 20.0079 20.8873 18.1348H11.963C11.9193 18.1348 11.8765 18.1479 11.8402 18.1722C11.8039 18.1966 11.7756 18.2311 11.7589 18.2715C11.7422 18.3119 11.7379 18.3564 11.7465 18.3992C11.755 18.4421 11.7761 18.4815 11.8071 18.5124Z" fill="#202129"/>
<path d="M6.63672 16.3809V21.9186C8.80754 22.9335 11.2413 23.2443 13.5976 22.8077L7.01437 16.225C6.98347 16.1941 6.9441 16.173 6.90122 16.1644C6.85835 16.1559 6.8139 16.1602 6.77348 16.1769C6.73307 16.1936 6.69851 16.2219 6.67417 16.2582C6.64983 16.2945 6.63679 16.3372 6.63672 16.3809Z" fill="#202129"/>
<path d="M4.48491 11.8017L0.734375 15.5519C1.5493 17.7014 2.98657 19.5591 4.86257 20.8878V11.9576C4.86249 11.9139 4.84946 11.8712 4.82512 11.8348C4.80077 11.7985 4.76621 11.7702 4.7258 11.7536C4.68539 11.7369 4.64094 11.7325 4.59806 11.7411C4.55519 11.7497 4.51581 11.7707 4.48491 11.8017Z" fill="#202129"/>
</svg>
