<svg width="21" height="21" viewBox="0 0 21 21" fill="none" xmlns="http://www.w3.org/2000/svg">
<path d="M10.5 10.5C9.82002 10.5 9.14005 10.3794 8.61 10.1381L1.13885 6.73111C0.797091 6.57562 0 6.12079 0 5.26212C0 4.40344 0.797091 3.94962 1.13986 3.79212L8.67562 0.355889C9.71401 -0.11863 11.2809 -0.11863 12.3198 0.355889L19.8601 3.79212C20.2029 3.9481 21 4.40293 21 5.26212C21 6.1213 20.2029 6.57462 19.8601 6.73161L12.389 10.1381C11.86 10.3794 11.18 10.5 10.5 10.5Z" fill="#202129"/>
<path d="M19.8571 9.02639L19.0954 8.68262L17.1382 9.57815L12.393 11.7488C11.863 11.9911 11.1815 12.1118 10.503 12.1118C9.82457 12.1118 9.14358 11.9911 8.61404 11.7488L3.86531 9.57815L1.90767 8.68262L1.13935 9.02791C0.797091 9.18389 0 9.64175 0 10.4999C0 11.3581 0.797091 11.8165 1.13885 11.9724L8.61 15.3865C9.13702 15.6288 9.818 15.7499 10.5 15.7499C11.182 15.7499 11.86 15.6288 12.39 15.387L19.8546 11.974C20.1984 11.818 21 11.3626 21 10.4999C21 9.63721 20.2039 9.18389 19.8571 9.02639Z" fill="#202129"/>
<path d="M19.8571 14.2759L19.0954 13.9326L17.1382 14.8276L12.393 16.9958C11.863 17.2371 11.1815 17.3582 10.503 17.3582C9.82457 17.3582 9.14358 17.2376 8.61404 16.9958L3.86531 14.8251L1.90767 13.9326L1.13935 14.2779C0.797091 14.4339 0 14.8918 0 15.7499C0 16.6081 0.797091 17.066 1.13885 17.2214L8.61 20.6334C9.13702 20.8747 9.82053 20.9999 10.5 20.9999C11.1795 20.9999 11.8569 20.8747 12.387 20.6329L19.8541 17.2219C20.1984 17.0665 21 16.6111 21 15.7499C21 14.8887 20.2039 14.4339 19.8571 14.2759Z" fill="#202129"/>
</svg>
