<svg width="45" height="45" viewBox="0 0 45 45" fill="none" xmlns="http://www.w3.org/2000/svg">
<rect x="0.5" y="0.5" width="44" height="44" rx="4.5" stroke="#92765B" stroke-opacity="0.2"/>
<path d="M29.8571 13H14.1429C13.3096 13.0009 12.5107 13.3348 11.9215 13.9285C11.3323 14.5222 11.0009 15.3271 11 16.1667V28.8333C11.0009 29.6729 11.3323 30.4778 11.9215 31.0715C12.5107 31.6652 13.3096 31.9991 14.1429 32H29.8571C30.6904 31.9991 31.4893 31.6652 32.0785 31.0715C32.6677 30.4778 32.9991 29.6729 33 28.8333V16.1667C32.9991 15.3271 32.6677 14.5222 32.0785 13.9285C31.4893 13.3348 30.6904 13.0009 29.8571 13ZM25.9286 16.1667C26.3948 16.1667 26.8505 16.306 27.2381 16.5669C27.6258 16.8279 27.9279 17.1988 28.1063 17.6328C28.2847 18.0668 28.3314 18.5443 28.2404 19.005C28.1495 19.4657 27.925 19.8889 27.5953 20.221C27.2657 20.5532 26.8457 20.7794 26.3884 20.871C25.9312 20.9627 25.4572 20.9156 25.0265 20.7359C24.5958 20.5561 24.2277 20.2517 23.9687 19.8611C23.7097 19.4706 23.5714 19.0114 23.5714 18.5417C23.5721 17.912 23.8206 17.3083 24.2625 16.863C24.7044 16.4178 25.3036 16.1673 25.9286 16.1667ZM14.1429 30.4167C13.7261 30.4167 13.3264 30.2499 13.0317 29.9529C12.737 29.656 12.5714 29.2533 12.5714 28.8333V25.4871L17.2287 21.316C17.6781 20.9144 18.2625 20.7006 18.8629 20.7181C19.4632 20.7355 20.0344 20.983 20.46 21.41L23.6495 24.6167L17.8932 30.4167H14.1429ZM31.4286 28.8333C31.4286 29.2533 31.263 29.656 30.9683 29.9529C30.6736 30.2499 30.2739 30.4167 29.8571 30.4167H20.1158L26.0783 24.4089C26.5005 24.0472 27.0362 23.8479 27.5904 23.8464C28.1446 23.845 28.6813 24.0415 29.1053 24.401L31.4286 26.3515V28.8333Z" fill="#202129"/>
</svg>
