<svg width="45" height="45" viewBox="0 0 45 45" fill="none" xmlns="http://www.w3.org/2000/svg">
<rect x="0.5" y="0.5" width="44" height="44" rx="4.5" stroke="#92765B" stroke-opacity="0.2"/>
<path d="M22.6469 12.001C16.7419 11.9212 11.9212 16.7417 12.001 22.6464C12.0797 28.3093 16.6909 32.9203 22.3541 32.999C28.2601 33.0798 33.0798 28.2593 32.999 22.3546C32.9213 16.6907 28.3101 12.0797 22.6469 12.001ZM22.4611 19.6789C22.4717 19.6183 22.4833 19.5577 22.497 19.4977C22.6245 18.9082 22.9085 18.364 23.3193 17.9223C23.9699 17.2293 24.8922 16.8467 25.9164 16.8467C26.3473 16.8449 26.7752 16.9177 27.1814 17.0617C27.6862 17.2414 28.1408 17.5391 28.5074 17.9299C29.0467 18.5128 29.3678 19.2643 29.416 20.0569C29.43 20.2485 29.43 20.4408 29.416 20.6324C29.3772 21.1753 29.2368 21.706 29.0021 22.1971C28.9765 22.2506 28.9498 22.3036 28.9219 22.3561C28.8658 22.4606 28.8058 22.5631 28.7411 22.662C28.6125 22.8595 28.4668 23.0453 28.3055 23.2173C27.6432 23.9239 26.7952 24.3141 25.9174 24.3141C25.5882 24.3139 25.2613 24.2597 24.9497 24.1536C24.845 24.118 24.7422 24.0771 24.6418 24.0309C24.2211 23.8347 23.8427 23.5583 23.5277 23.2173C22.8722 22.5062 22.4802 21.5919 22.4172 20.6268C22.4081 20.4963 22.4051 20.367 22.4081 20.2392C22.412 20.0517 22.4297 19.8648 22.4611 19.6799V19.6789ZM14.903 20.9075C14.9275 20.5473 15.0164 20.1945 15.1655 19.8656C15.2075 19.7741 15.2544 19.6848 15.3058 19.5981C15.4087 19.4244 15.5304 19.2626 15.6687 19.1156C15.8737 18.897 16.1122 18.7126 16.3754 18.5694C16.5069 18.4976 16.6438 18.4362 16.7848 18.3857C17.3253 18.1967 17.9064 18.155 18.4683 18.265C19.0637 18.3802 19.6075 18.6805 20.022 19.1231C20.5139 19.6541 20.7911 20.3488 20.7999 21.0725C20.8024 21.179 20.7999 21.286 20.7923 21.3946C20.7615 21.8101 20.659 22.2173 20.4894 22.5979C20.4082 22.7812 20.3115 22.9571 20.2002 23.1239C19.9862 23.4472 19.7169 23.7304 19.4046 23.9603C19.3289 24.0143 19.2502 24.0647 19.1689 24.1152C19.0091 24.2104 18.8399 24.2891 18.6641 24.3499C18.4013 24.4418 18.1248 24.4889 17.8464 24.4892C17.7994 24.4892 17.7525 24.4892 17.706 24.4852C17.6133 24.4801 17.521 24.4697 17.4294 24.4539C17.3384 24.4381 17.2482 24.4173 17.1594 24.3918C17.0259 24.3533 16.8956 24.3045 16.7697 24.246C16.7273 24.2263 16.6859 24.2056 16.6445 24.1839C15.7359 23.7049 15.0509 22.712 14.9166 21.5531C14.9106 21.5001 14.9055 21.4471 14.902 21.3936C14.8906 21.2317 14.8909 21.0693 14.903 20.9075ZM17.6248 29.9225C16.2808 29.0366 15.2006 27.8046 14.4981 26.3564C14.4752 26.31 14.4709 26.2567 14.4861 26.2073C14.5013 26.1579 14.5349 26.1162 14.5799 26.0909C15.5178 25.5634 16.7157 25.2762 17.8474 25.2762C18.7055 25.2762 19.3971 25.3771 20.0023 25.573C20.0709 25.5956 20.1322 25.6361 20.1798 25.6905C20.2274 25.7448 20.2596 25.8109 20.2729 25.8819C20.2863 25.9529 20.2804 26.0262 20.2557 26.0941C20.2311 26.162 20.1888 26.2221 20.1331 26.268C18.9544 27.2271 18.1947 28.4153 17.8378 29.8392C17.8325 29.861 17.822 29.8812 17.8072 29.898C17.7924 29.9149 17.7738 29.928 17.7529 29.9361C17.732 29.9443 17.7095 29.9473 17.6872 29.945C17.6649 29.9426 17.6435 29.9349 17.6248 29.9225ZM22.5005 31.3838C21.364 31.3849 20.238 31.1669 19.1841 30.7417C19.141 30.7239 19.1054 30.6918 19.0833 30.6508C19.0612 30.6097 19.054 30.5623 19.0629 30.5166C19.0831 30.4131 19.1053 30.3187 19.125 30.24C19.4844 28.8049 20.3748 27.6152 21.6994 26.7985C22.875 26.0742 24.3748 25.6754 25.9154 25.6754C27.4883 25.6754 28.9441 26.058 30.1293 26.7814C30.1595 26.8003 30.1812 26.8301 30.1897 26.8647C30.1983 26.8993 30.1931 26.9358 30.1752 26.9666C29.3936 28.3094 28.2737 29.4238 26.9271 30.1988C25.5805 30.9739 24.0542 31.3824 22.5005 31.3838Z" fill="#202129"/>
</svg>
