<svg width="21" height="23" viewBox="0 0 21 23" fill="none" xmlns="http://www.w3.org/2000/svg">
<path d="M20.4237 15.9562L18.7753 15.0152C19.0736 14.7115 19.4157 14.4532 19.7905 14.2485C20.0356 14.112 20.2161 13.8853 20.2929 13.6178C20.3696 13.3503 20.3363 13.0637 20.2003 12.8204C20.0642 12.577 19.8364 12.3967 19.5664 12.3185C19.2965 12.2404 19.0062 12.2708 18.7589 12.4032C18.0432 12.7947 17.4091 13.3166 16.8899 13.9414L12.6182 11.5L16.8889 9.06296C17.408 9.68782 18.0421 10.2097 18.7579 10.6011C18.8806 10.6694 19.0157 10.7131 19.1556 10.7296C19.2954 10.746 19.4372 10.735 19.5727 10.697C19.7082 10.659 19.8347 10.5949 19.945 10.5083C20.0553 10.4218 20.1471 10.3145 20.2153 10.1927C20.2834 10.0708 20.3264 9.93687 20.3419 9.79852C20.3573 9.66017 20.3449 9.52016 20.3053 9.38657C20.2657 9.25299 20.1998 9.12847 20.1113 9.02021C20.0228 8.91195 19.9134 8.82209 19.7896 8.75581C19.4149 8.55103 19.0728 8.29268 18.7744 7.98915L20.4227 7.04806C20.5488 6.98144 20.6601 6.89044 20.7499 6.78047C20.8397 6.67051 20.9062 6.54382 20.9454 6.40794C20.9847 6.27207 20.9959 6.12978 20.9784 5.98953C20.961 5.84928 20.9151 5.71393 20.8437 5.59154C20.7722 5.46915 20.6766 5.3622 20.5625 5.27707C20.4484 5.19193 20.3181 5.13033 20.1794 5.09595C20.0407 5.06156 19.8965 5.05508 19.7552 5.07689C19.614 5.0987 19.4786 5.14836 19.3571 5.22292L17.7088 6.16352C17.5914 5.7562 17.5355 5.33396 17.543 4.9105C17.546 4.77182 17.5214 4.6339 17.4705 4.50465C17.4195 4.37539 17.3433 4.25735 17.2461 4.15728C17.1489 4.05721 17.0326 3.97709 16.9041 3.9215C16.7755 3.86591 16.6371 3.83595 16.4967 3.83333H16.4769C16.1974 3.83329 15.9291 3.94165 15.7296 4.13511C15.5301 4.32858 15.4155 4.59169 15.4103 4.86785C15.3952 5.67567 15.5351 6.479 15.8224 7.23542L11.5516 9.6739V4.80029C12.3586 4.66848 13.1329 4.38671 13.8337 3.9699C14.076 3.82559 14.2504 3.59206 14.3184 3.32068C14.3865 3.0493 14.3428 2.7623 14.1968 2.52281C14.0508 2.28332 13.8145 2.11097 13.5399 2.04366C13.2653 1.97636 12.975 2.01961 12.7326 2.16392C12.3653 2.38212 11.9673 2.54536 11.5516 2.64835V1.05417C11.5516 0.774584 11.4393 0.506453 11.2392 0.308758C11.0392 0.111064 10.7679 0 10.4851 0C10.2022 0 9.93089 0.111064 9.73087 0.308758C9.53084 0.506453 9.41847 0.774584 9.41847 1.05417V2.64835C9.00277 2.54536 8.60479 2.38212 8.23747 2.16392C8.11749 2.09247 7.98444 2.04507 7.84593 2.02444C7.70742 2.0038 7.56615 2.01034 7.43019 2.04366C7.29424 2.07699 7.16625 2.13646 7.05355 2.21867C6.94084 2.30088 6.84563 2.40423 6.77333 2.52281C6.70104 2.64139 6.65309 2.77289 6.63221 2.90979C6.61133 3.04669 6.61794 3.18631 6.65166 3.32068C6.68538 3.45506 6.74555 3.58155 6.82873 3.69294C6.91191 3.80434 7.01648 3.89844 7.13646 3.9699C7.83721 4.38671 8.61155 4.66848 9.41847 4.80029V9.6739L5.14776 7.23542C5.4355 6.47876 5.57565 5.6751 5.56082 4.8669C5.55561 4.59073 5.44094 4.32762 5.24148 4.13416C5.04202 3.94069 4.7737 3.83233 4.49423 3.83238H4.47338C4.33331 3.83493 4.19512 3.86474 4.0667 3.92009C3.93829 3.97544 3.82216 4.05525 3.72496 4.15497C3.62776 4.25469 3.55139 4.37236 3.50021 4.50125C3.44903 4.63015 3.42404 4.76775 3.42667 4.90619C3.43449 5.33027 3.37878 5.75316 3.26135 6.16113L1.61299 5.22292C1.49161 5.15135 1.35704 5.10435 1.21711 5.08463C1.07719 5.06492 0.934695 5.07289 0.797912 5.10807C0.66113 5.14326 0.532788 5.20497 0.420346 5.28961C0.307904 5.37425 0.213604 5.48014 0.142927 5.60111C0.0722494 5.72209 0.0266048 5.85574 0.0086454 5.9943C-0.00931399 6.13286 0.000770084 6.27357 0.0383116 6.40825C0.0758532 6.54292 0.140104 6.66888 0.227328 6.7788C0.314553 6.88872 0.423012 6.98041 0.546403 7.04854L2.19477 7.98962C1.89638 8.29316 1.5543 8.55151 1.17957 8.75629C1.05572 8.82257 0.946387 8.91243 0.857867 9.02069C0.769346 9.12895 0.703395 9.25347 0.663819 9.38705C0.624243 9.52064 0.611826 9.66065 0.627285 9.799C0.642744 9.93735 0.685773 10.0713 0.753887 10.1931C0.822002 10.315 0.913854 10.4223 1.02414 10.5088C1.13443 10.5954 1.26097 10.6595 1.39647 10.6975C1.53196 10.7354 1.67372 10.7465 1.81356 10.7301C1.95341 10.7136 2.08857 10.6699 2.21125 10.6016C2.9269 10.2101 3.56105 9.68817 4.0802 9.06344L8.35188 11.5L4.08117 13.937C3.56202 13.3123 2.92787 12.7904 2.21222 12.3989C2.08954 12.3306 1.95438 12.2869 1.81453 12.2704C1.67469 12.254 1.53293 12.265 1.39744 12.303C1.26194 12.341 1.1354 12.4051 1.02511 12.4917C0.914824 12.5782 0.822972 12.6855 0.754857 12.8073C0.686742 12.9292 0.643714 13.0631 0.628255 13.2015C0.612796 13.3398 0.625213 13.4798 0.664789 13.6134C0.704365 13.747 0.770316 13.8715 0.858837 13.9798C0.947357 14.088 1.05669 14.1779 1.18054 14.2442C1.55527 14.449 1.89735 14.7073 2.19573 15.0109L0.546403 15.9562C0.423012 16.0244 0.314553 16.1161 0.227328 16.226C0.140104 16.3359 0.0758532 16.4619 0.0383116 16.5965C0.000770084 16.7312 -0.00931399 16.8719 0.0086454 17.0105C0.0266048 17.1491 0.0722494 17.2827 0.142927 17.4037C0.213604 17.5247 0.307904 17.6305 0.420346 17.7152C0.532788 17.7998 0.66113 17.8615 0.797912 17.8967C0.934695 17.9319 1.07719 17.9399 1.21711 17.9202C1.35704 17.9004 1.49161 17.8534 1.61299 17.7819L3.26135 16.8413C3.37875 17.2486 3.43463 17.6708 3.42716 18.0943C3.42223 18.3736 3.52963 18.6433 3.72579 18.8444C3.92195 19.0455 4.19083 19.1614 4.47338 19.1667H4.49326C4.77273 19.1667 5.04105 19.0584 5.24051 18.8649C5.43997 18.6714 5.55464 18.4083 5.55985 18.1321C5.57487 17.3243 5.43504 16.521 5.14776 15.7646L9.41847 13.3261V18.1997C8.61155 18.3315 7.83721 18.6133 7.13646 19.0301C6.89415 19.1744 6.71976 19.4079 6.65166 19.6793C6.58356 19.9507 6.62733 20.2377 6.77333 20.4772C6.91934 20.7167 7.15562 20.889 7.43019 20.9563C7.70477 21.0236 7.99516 20.9804 8.23747 20.8361C8.60479 20.6179 9.00277 20.4546 9.41847 20.3516V21.9458C9.41847 22.2254 9.53084 22.4935 9.73087 22.6912C9.93089 22.8889 10.2022 23 10.4851 23C10.7679 23 11.0392 22.8889 11.2392 22.6912C11.4393 22.4935 11.5516 22.2254 11.5516 21.9458V20.3516C11.9673 20.4546 12.3653 20.6179 12.7326 20.8361C12.975 20.9804 13.2653 21.0236 13.5399 20.9563C13.8145 20.889 14.0508 20.7167 14.1968 20.4772C14.3428 20.2377 14.3865 19.9507 14.3184 19.6793C14.2504 19.4079 14.076 19.1744 13.8337 19.0301C13.1329 18.6133 12.3586 18.3315 11.5516 18.1997V13.3261L15.8224 15.7646C15.5346 16.5212 15.3945 17.3249 15.4093 18.1331C15.4145 18.4093 15.5292 18.6724 15.7286 18.8658C15.9281 19.0593 16.1964 19.1677 16.4759 19.1676H16.4967C16.6368 19.1651 16.775 19.1353 16.9034 19.0799C17.0318 19.0246 17.148 18.9447 17.2452 18.845C17.3424 18.7453 17.4187 18.6276 17.4699 18.4987C17.5211 18.3699 17.5461 18.2323 17.5434 18.0938C17.5356 17.6697 17.5913 17.2468 17.7088 16.8389L19.3571 17.7795C19.4785 17.8565 19.6144 17.9084 19.7567 17.932C19.8989 17.9557 20.0446 17.9505 20.1847 17.9169C20.3249 17.8833 20.4568 17.822 20.5723 17.7366C20.6878 17.6512 20.7846 17.5435 20.8568 17.4201C20.929 17.2967 20.9751 17.1601 20.9923 17.0185C21.0096 16.877 20.9976 16.7334 20.9571 16.5966C20.9167 16.4598 20.8485 16.3325 20.7568 16.2224C20.6651 16.1123 20.5518 16.0218 20.4237 15.9562Z" fill="#202129"/>
</svg>
