<svg width="100" height="90" viewBox="0 0 100 90" fill="none" xmlns="http://www.w3.org/2000/svg">
<mask id="mask0_4116_2" style="mask-type:luminance" maskUnits="userSpaceOnUse" x="0" y="0" width="100" height="90">
<path d="M100 0H0V89.4737H100V0Z" fill="white"/>
</mask>
<g mask="url(#mask0_4116_2)">
<path d="M11.75 64.543H16.9158V65.9957H13.409V71.3224H11.75V64.543Z" fill="#606230"/>
<path d="M18.4336 64.543H23.9271V65.9957H20.0926V67.2742H23.7284V68.5912H20.0926V69.8697H23.9271V71.3224H18.4336V64.543Z" fill="#606230"/>
<mask id="mask1_4116_2" style="mask-type:luminance" maskUnits="userSpaceOnUse" x="0" y="0" width="100" height="90">
<path d="M0 0H100V89.4737H0V0Z" fill="white"/>
</mask>
<g mask="url(#mask1_4116_2)">
<path d="M29.242 69.9561C30.4043 69.9561 31.2686 69.0651 31.2686 67.9319C31.2686 66.7988 30.4043 65.9079 29.242 65.9079C28.0797 65.9079 27.2254 66.7988 27.2254 67.9319C27.2254 69.0651 28.0797 69.9561 29.242 69.9561ZM25.5664 67.9319C25.5664 65.9564 27.2155 64.3486 29.242 64.3486C31.2686 64.3486 32.9175 65.9564 32.9175 67.9319C32.9175 69.9077 31.2686 71.5154 29.242 71.5154C27.2155 71.5154 25.5664 69.9077 25.5664 67.9319Z" fill="#606230"/>
</g>
<mask id="mask2_4116_2" style="mask-type:luminance" maskUnits="userSpaceOnUse" x="0" y="0" width="100" height="90">
<path d="M0 0H100V89.4737H0V0Z" fill="white"/>
</mask>
<g mask="url(#mask2_4116_2)">
<path d="M39.0128 69.8687V65.9949H37.3736L36.4497 69.6751C36.4299 69.7428 36.41 69.8106 36.3801 69.8687H39.0128ZM33.8867 69.9946H34.155C34.6517 69.9946 34.8305 69.617 34.9597 69.1231L36.1218 64.542H40.6717V69.8687H41.2678V72.3868H39.6088V71.3214H35.5359V72.3868H33.8867V69.9946Z" fill="#606230"/>
</g>
<mask id="mask3_4116_2" style="mask-type:luminance" maskUnits="userSpaceOnUse" x="0" y="0" width="100" height="90">
<path d="M0 0H100V89.4737H0V0Z" fill="white"/>
</mask>
<g mask="url(#mask3_4116_2)">
<path d="M53.9844 64.543H55.6434L58.0872 68.601L60.531 64.543H62.19V71.3224H60.531V67.3903L58.7428 70.354H57.4215L55.6434 67.3903V71.3224H53.9844V64.543Z" fill="#606230"/>
</g>
<mask id="mask4_4116_2" style="mask-type:luminance" maskUnits="userSpaceOnUse" x="0" y="0" width="100" height="90">
<path d="M0 0H100V89.4737H0V0Z" fill="white"/>
</mask>
<g mask="url(#mask4_4116_2)">
<path d="M64.8203 64.543H66.4793V68.814L69.6582 64.543H71.3073V71.3224H69.6582V67.0514L66.4793 71.3224H64.8203V64.543Z" fill="#606230"/>
</g>
<mask id="mask5_4116_2" style="mask-type:luminance" maskUnits="userSpaceOnUse" x="0" y="0" width="100" height="90">
<path d="M0 0H100V89.4737H0V0Z" fill="white"/>
</mask>
<g mask="url(#mask5_4116_2)">
<path d="M73.4453 64.543H75.1043V67.1966L77.7071 64.543H79.7236L76.4255 67.9326L79.7236 71.3224H77.7071L75.1043 68.6688V71.3224H73.4453V64.543Z" fill="#606230"/>
</g>
<mask id="mask6_4116_2" style="mask-type:luminance" maskUnits="userSpaceOnUse" x="0" y="0" width="100" height="90">
<path d="M0 0H100V89.4737H0V0Z" fill="white"/>
</mask>
<g mask="url(#mask6_4116_2)">
<path d="M85.1827 68.9003L84.2588 66.6824L83.3251 68.9003H85.1827ZM85.7093 70.2271H82.7985L82.3416 71.3215H80.6328L83.4045 64.542H85.1032L87.875 71.3215H86.1662L85.7093 70.2271Z" fill="#606230"/>
</g>
<mask id="mask7_4116_2" style="mask-type:luminance" maskUnits="userSpaceOnUse" x="0" y="0" width="100" height="90">
<path d="M0 0H100V89.4737H0V0Z" fill="white"/>
</mask>
<g mask="url(#mask7_4116_2)">
<path d="M54.7575 27.7829L51.6484 38.449C51.4811 38.9786 51.936 39.4977 52.4986 39.4195L67.0403 37.3976C67.7261 37.3023 67.9489 36.4445 67.3925 36.0423L55.9601 27.398C55.5304 27.0875 54.9147 27.2845 54.7575 27.7829Z" fill="#606230"/>
</g>
<mask id="mask8_4116_2" style="mask-type:luminance" maskUnits="userSpaceOnUse" x="0" y="0" width="100" height="90">
<path d="M0 0H100V89.4737H0V0Z" fill="white"/>
</mask>
<g mask="url(#mask8_4116_2)">
<path d="M71.6573 24.4554L68.9376 30.4309C68.743 30.8585 68.1413 31.0347 67.6899 30.796L59.3545 26.3894C58.692 26.0392 58.9085 25.1688 59.6854 25.0585L70.7405 23.4898C71.3861 23.3982 71.8946 23.9339 71.6573 24.4554Z" fill="#606230"/>
</g>
<mask id="mask9_4116_2" style="mask-type:luminance" maskUnits="userSpaceOnUse" x="0" y="0" width="100" height="90">
<path d="M0 0H100V89.4737H0V0Z" fill="white"/>
</mask>
<g mask="url(#mask9_4116_2)">
<path d="M58.3496 18.1506L55.0611 21.8436C54.7137 22.2337 55.0435 22.8357 55.5691 22.7714L67.4938 21.3117C68.0459 21.2441 68.115 20.491 67.584 20.3289L59.4504 17.8463C59.054 17.7254 58.6218 17.8448 58.3496 18.1506Z" fill="#606230"/>
</g>
<mask id="mask10_4116_2" style="mask-type:luminance" maskUnits="userSpaceOnUse" x="0" y="0" width="100" height="90">
<path d="M0 0H100V89.4737H0V0Z" fill="white"/>
</mask>
<g mask="url(#mask10_4116_2)">
<path d="M54.2952 16.885L44.0145 19.4339C43.4647 19.5702 43.5091 20.3454 44.0709 20.4211L50.7548 21.3228C51.151 21.3762 51.5485 21.2347 51.8163 20.9451L54.8063 17.7105C55.1487 17.3403 54.7905 16.7621 54.2952 16.885Z" fill="#606230"/>
</g>
<mask id="mask11_4116_2" style="mask-type:luminance" maskUnits="userSpaceOnUse" x="0" y="0" width="100" height="90">
<path d="M0 0H100V89.4737H0V0Z" fill="white"/>
</mask>
<g mask="url(#mask11_4116_2)">
<path d="M37.8143 22.9465L31.7982 32.4956C31.4909 32.9836 32.055 33.5487 32.5637 33.2624L47.7668 24.7055C48.2257 24.4471 48.1015 23.7705 47.5788 23.6836L39.2728 22.3022C38.6972 22.2064 38.12 22.4615 37.8143 22.9465Z" fill="#606230"/>
</g>
<mask id="mask12_4116_2" style="mask-type:luminance" maskUnits="userSpaceOnUse" x="0" y="0" width="100" height="90">
<path d="M0 0H100V89.4737H0V0Z" fill="white"/>
</mask>
<g mask="url(#mask12_4116_2)">
<path d="M46.1784 39.7124L33.3735 37.6962C32.7179 37.5929 32.5599 36.7433 33.137 36.4223L50.2043 26.9305C50.727 26.6399 51.3434 27.1273 51.1594 27.686L47.4501 38.9523C47.2772 39.4771 46.7367 39.8004 46.1784 39.7124Z" fill="#606230"/>
</g>
<mask id="mask13_4116_2" style="mask-type:luminance" maskUnits="userSpaceOnUse" x="0" y="0" width="100" height="90">
<path d="M0 0H100V89.4737H0V0Z" fill="white"/>
</mask>
<g mask="url(#mask13_4116_2)">
<path d="M50.6212 45.1072L59.7448 58.5577C60.1096 59.0954 60.9385 59.0332 61.2146 58.4472L68.7907 42.3671C69.0724 41.7694 68.5559 41.1073 67.8899 41.2122L51.1901 43.8421C50.5856 43.9373 50.2833 44.6093 50.6212 45.1072Z" fill="#606230"/>
</g>
<mask id="mask14_4116_2" style="mask-type:luminance" maskUnits="userSpaceOnUse" x="0" y="0" width="100" height="90">
<path d="M0 0H100V89.4737H0V0Z" fill="white"/>
</mask>
<g mask="url(#mask14_4116_2)">
<path d="M54.6832 59.18L47.2166 48.1193C46.8287 47.5447 45.9687 47.5324 45.5637 48.0958L37.6123 59.1565C37.1483 59.802 37.622 60.6897 38.4306 60.6897H53.8486C54.6439 60.6897 55.1205 59.8278 54.6832 59.18Z" fill="#606230"/>
</g>
<mask id="mask15_4116_2" style="mask-type:luminance" maskUnits="userSpaceOnUse" x="0" y="0" width="100" height="90">
<path d="M0 0H100V89.4737H0V0Z" fill="white"/>
</mask>
<g mask="url(#mask15_4116_2)">
<path d="M29.6527 42.8188L32.8359 57.3185C32.9971 58.0519 33.9798 58.2417 34.4154 57.6234L43.187 45.1755C43.5481 44.6629 43.2447 43.9579 42.6166 43.8502L30.6617 41.7985C30.0493 41.6934 29.5226 42.2261 29.6527 42.8188Z" fill="#606230"/>
</g>
<mask id="mask16_4116_2" style="mask-type:luminance" maskUnits="userSpaceOnUse" x="0" y="0" width="100" height="90">
<path d="M0 0H100V89.4737H0V0Z" fill="white"/>
</mask>
<g mask="url(#mask16_4116_2)">
<path d="M28.4339 60.6977H16.0605C15.3498 60.6977 14.9107 59.9418 15.2761 59.3475L24.5207 44.3082C24.7962 43.8602 25.4923 43.9729 25.6045 44.4837L29.0112 60.0016C29.0899 60.36 28.8097 60.6977 28.4339 60.6977Z" fill="#606230"/>
</g>
<mask id="mask17_4116_2" style="mask-type:luminance" maskUnits="userSpaceOnUse" x="0" y="0" width="100" height="90">
<path d="M0 0H100V89.4737H0V0Z" fill="white"/>
</mask>
<g mask="url(#mask17_4116_2)">
<path d="M15.3979 44.3653L12.2008 57.4052C12.0546 58.0012 12.88 58.3349 13.2092 57.8126L23.6736 41.215C23.8883 40.8746 23.5338 40.4641 23.1532 40.6121L16.3981 43.2377C15.8964 43.4326 15.5234 43.8532 15.3979 44.3653Z" fill="#606230"/>
</g>
<mask id="mask18_4116_2" style="mask-type:luminance" maskUnits="userSpaceOnUse" x="0" y="0" width="100" height="90">
<path d="M0 0H100V89.4737H0V0Z" fill="white"/>
</mask>
<g mask="url(#mask18_4116_2)">
<path d="M31.3474 27.3658L19.2731 38.2358C18.894 38.5771 19.2288 39.2078 19.7111 39.0606L25.6434 37.2503C26.0792 37.1173 26.4568 36.8318 26.711 36.4431L32.1649 28.107C32.5259 27.5554 31.8339 26.9278 31.3474 27.3658Z" fill="#606230"/>
</g>
<mask id="mask19_4116_2" style="mask-type:luminance" maskUnits="userSpaceOnUse" x="0" y="0" width="100" height="90">
<path d="M0 0H100V89.4737H0V0Z" fill="white"/>
</mask>
<g mask="url(#mask19_4116_2)">
<path d="M77.6598 39.211L67.8864 60.1584C67.7581 60.4332 67.9642 60.7453 68.2739 60.7453H87.8209C88.1306 60.7453 88.3367 60.4332 88.2084 60.1584L78.435 39.211C78.2837 38.8867 77.8111 38.8867 77.6598 39.211Z" fill="#606230"/>
</g>
<mask id="mask20_4116_2" style="mask-type:luminance" maskUnits="userSpaceOnUse" x="0" y="0" width="100" height="90">
<path d="M0 0H100V89.4737H0V0Z" fill="white"/>
</mask>
<g mask="url(#mask20_4116_2)">
<path d="M77.578 22.1557L73.007 33.3964C72.8961 33.6688 73.1022 33.9644 73.4028 33.9644H82.5448C82.8455 33.9644 83.0515 33.6688 82.9406 33.3964L78.3695 22.1557C78.2275 21.8062 77.7201 21.8062 77.578 22.1557Z" fill="#606230"/>
</g>
<mask id="mask21_4116_2" style="mask-type:luminance" maskUnits="userSpaceOnUse" x="0" y="0" width="100" height="90">
<path d="M0 0H100V89.4737H0V0Z" fill="white"/>
</mask>
<g mask="url(#mask21_4116_2)">
<path d="M77.6438 11.1679L75.3937 16.3338C75.2745 16.6075 75.4806 16.9111 75.7856 16.9111H80.2858C80.5908 16.9111 80.7969 16.6075 80.6777 16.3338L78.4276 11.1679C78.2807 10.8307 77.7907 10.8307 77.6438 11.1679Z" fill="#606230"/>
</g>
<mask id="mask22_4116_2" style="mask-type:luminance" maskUnits="userSpaceOnUse" x="0" y="0" width="100" height="90">
<path d="M0 0H100V89.4737H0V0Z" fill="white"/>
</mask>
<g mask="url(#mask22_4116_2)">
<path d="M49.7518 68.8185L48.8975 69.8628C48.7536 70.0388 48.5354 70.1413 48.3044 70.1413H46.9344C46.7036 70.1413 46.4852 70.0388 46.3413 69.8628L45.4872 68.8185C45.3433 68.6425 45.2893 68.4123 45.3407 68.193L45.6456 66.8907C45.6969 66.6712 45.848 66.4867 46.0559 66.389L47.2903 65.8095C47.4983 65.7119 47.7406 65.7119 47.9485 65.8095L49.1829 66.389C49.391 66.4867 49.5419 66.6712 49.5934 66.8907L49.8983 68.193C49.9495 68.4123 49.8957 68.6425 49.7518 68.8185ZM51.7223 68.3891L51.1818 66.0804C51.0875 65.6779 50.8105 65.339 50.4287 65.1599L48.1097 64.0711C47.8106 63.9307 47.4622 63.9307 47.1633 64.0711L44.8441 65.1599C44.4625 65.339 44.1853 65.6779 44.091 66.0804L43.5505 68.3891C43.4564 68.7916 43.5551 69.2142 43.8193 69.5371L45.3337 71.3884C45.5979 71.7113 45.9984 71.8994 46.4219 71.8994H48.8509C49.2746 71.8994 49.6751 71.7113 49.9391 71.3884L51.4536 69.5371C51.7177 69.2142 51.8166 68.7916 51.7223 68.3891Z" fill="#606230"/>
</g>
</g>
</svg>
